<svg xmlns="http://www.w3.org/2000/svg" viewBox="0 0 740 740"><defs><style>.cls-1{fill:#ffda6b;}.cls-2{fill:none;stroke:#262c38;stroke-linecap:round;stroke-linejoin:round;stroke-width:23px;}.cls-3{fill:#54bce8;}</style></defs><title>Ativo 3</title><g id="Camada_2" data-name="Camada 2"><g id="Camada_1-2" data-name="Camada 1"><circle class="cls-1" cx="370" cy="370" r="370"/><path class="cls-2" d="M624,295s-83.24,97.88-194.5,0"/><path class="cls-2" d="M310,295s-83.24,97.88-194.5,0"/><path class="cls-2" d="M174,584.5s9-44.75,46.7-83.47c3.35-3.44,6.93-6.85,10.76-10.17l.18-.15c28.92-25,71.59-45.21,134-45.21h.76c57.06,0,97.62,16.9,126.26,38.91q4.11,3.16,7.9,6.45,5.73,5,10.77,10.17C549,539.75,558,584.5,558,584.5"/><path class="cls-3" d="M669.07,429.7c8.06,20.67-1.16,43.57-20.59,51.15s-41.72-3-49.78-23.7.57-102.48.57-102.48S661,409,669.07,429.7Z"/><path class="cls-3" d="M80.17,429.7c-8.06,20.67,1.16,43.57,20.59,51.15s41.73-3,49.79-23.7S150,354.67,150,354.67,88.23,409,80.17,429.7Z"/></g></g></svg>