<svg xmlns="http://www.w3.org/2000/svg" viewBox="0 0 740 740"><defs><style>.cls-1{fill:#ffda6b;}.cls-2{fill:#262c38;}.cls-3{fill:none;stroke:#262c38;stroke-linecap:round;stroke-linejoin:round;stroke-width:23px;}.cls-4{fill:#c33;}</style></defs><title>Ativo 4</title><g id="Camada_2" data-name="Camada 2"><g id="Camada_1-2" data-name="Camada 1"><circle class="cls-1" cx="370" cy="370" r="370"/><path class="cls-2" d="M624,441s-11.92,81.61-61.78,152.22c-4.43,6.29-9.17,12.5-14.24,18.55l-.23.28C509.49,657.65,453,694.5,370.5,694.5h-1c-75.49,0-129.15-30.82-167-71Q197,617.77,192,611.77c-5.06-6-9.8-12.25-14.25-18.54C127.92,522.62,116,441,116,441s181.5,10.5,245,10.5S624,441,624,441Z"/><path class="cls-3" d="M115.5,340.5s83.24-97.88,194.5,0"/><path class="cls-3" d="M429.5,340.5s83.24-97.88,194.5,0"/><path class="cls-4" d="M548,611.77l-.23.28C509.49,657.65,453,694.5,370.5,694.5h-1c-75.49,0-129.15-30.82-167-71Q197,617.77,192,611.77C231.51,575.6,296.51,552,370,552S508.49,575.6,548,611.77Z"/></g></g></svg>